G04 DipTrace 3.0.0.2*
G04 RGBI-AnalogRGB.GBL*
%MOMM*%
G04 #@! TF.FileFunction,Copper,L2,Bot*
G04 #@! TF.Part,Single*
G04 #@! TA.AperFunction,Conductor*
%ADD13C,0.33*%
G04 #@! TA.AperFunction,CopperBalancing*
%ADD14C,0.635*%
G04 #@! TA.AperFunction,ComponentPad*
%ADD16C,1.5*%
G04 #@! TA.AperFunction,ViaPad*
%ADD19C,1.016*%
%FSLAX35Y35*%
G04*
G71*
G90*
G75*
G01*
G04 Bottom*
%LPD*%
X2645313Y3801207D2*
D13*
Y2296063D1*
X2636917Y2287667D1*
X2524760Y2175510D1*
X2636917Y2287667D2*
X3843417D1*
X3858260Y2302510D1*
X3413760Y3255010D2*
X3191510D1*
X4238760Y3115560D2*
X3242560D1*
X3128010Y3001010D1*
X3445510D2*
X3382010D1*
X3096260Y2715260D1*
X3785147Y3509010D2*
X4620260D1*
X3906623Y3255010D2*
X4556760D1*
X4620260Y3191510D1*
X3891663Y3001010D2*
X4461510D1*
X4620260Y2842260D1*
D19*
X2645313Y3801207D3*
X2524760Y2175510D3*
X3858260Y2302510D3*
X3413760Y3255010D3*
X3191510D3*
X4238760Y3115560D3*
X3128010Y3001010D3*
X3445510D3*
X3096260Y2715260D3*
X3785147Y3509010D3*
X3906623Y3255010D3*
X3891663Y3001010D3*
X1134110Y4112593D2*
D14*
X3248597D1*
X3388423D2*
X4804410D1*
X1134110Y4049427D2*
X3185097D1*
X3451923D2*
X4804410D1*
X1134110Y3986260D2*
X3169843D1*
X3467177D2*
X4804410D1*
X1134110Y3923093D2*
X3184107D1*
X3452913D2*
X4804410D1*
X1134110Y3859927D2*
X1175917D1*
X1397103D2*
X3244753D1*
X3392267D2*
X4804410D1*
X1431083Y3796760D2*
X4804410D1*
X1432077Y3733593D2*
X4804410D1*
X1134110Y3670427D2*
X1172073D1*
X1400947D2*
X4804410D1*
X1134110Y3607260D2*
X3713190D1*
X3857107D2*
X4510910D1*
X4729610D2*
X4804410D1*
X1134110Y3544093D2*
X1177530D1*
X1395490D2*
X3666060D1*
X4764587D2*
X4804410D1*
X1430713Y3480927D2*
X3664077D1*
X4766073D2*
X4804410D1*
X1432450Y3417760D2*
X3703763D1*
X3866533D2*
X4504707D1*
X4735813D2*
X4804410D1*
X1134110Y3354593D2*
X1170710D1*
X1402310D2*
X3121597D1*
X3261423D2*
X3343847D1*
X3483673D2*
X3836717D1*
X3976540D2*
X4804410D1*
X1134110Y3291427D2*
X3072857D1*
X3532413D2*
X3787977D1*
X4728000D2*
X4804410D1*
X1134110Y3228260D2*
X1227017D1*
X1346003D2*
X3070127D1*
X3535143D2*
X3785247D1*
X4764090D2*
X4804410D1*
X1417440Y3165093D2*
X3108577D1*
X4352333D2*
X4474073D1*
X4766447D2*
X4804410D1*
X1435053Y3101927D2*
X3060330D1*
X4362377D2*
X4503343D1*
X4737177D2*
X4804410D1*
X1423023Y3038760D2*
X3009730D1*
X4548537D2*
X4804410D1*
X1134110Y2975593D2*
X1204693D1*
X1368327D2*
X3006257D1*
X3567263D2*
X3769993D1*
X4676407D2*
X4804410D1*
X1134110Y2912427D2*
X1231357D1*
X1341663D2*
X3043587D1*
X3529933D2*
X3807200D1*
X3976170D2*
X4425210D1*
X4750447D2*
X4804410D1*
X1416450Y2849260D2*
X3105473D1*
X3355060D2*
X4471717D1*
X4768803D2*
X4804410D1*
X1434930Y2786093D2*
X2995343D1*
X3291933D2*
X4483127D1*
X4757393D2*
X4804410D1*
X1423767Y2722927D2*
X2972027D1*
X3228803D2*
X4536333D1*
X4704187D2*
X4804410D1*
X1134110Y2659760D2*
X1202087D1*
X1370933D2*
X2985667D1*
X3206853D2*
X4568827D1*
X4671693D2*
X4804410D1*
X1134110Y2596593D2*
X1236193D1*
X1336827D2*
X4491063D1*
X4749457D2*
X4804410D1*
X1415457Y2533427D2*
X4471840D1*
X4768680D2*
X4804410D1*
X1434930Y2470260D2*
X4482507D1*
X4758013D2*
X4804410D1*
X1424510Y2407093D2*
X4533853D1*
X4706667D2*
X4804410D1*
X1134110Y2343927D2*
X1199607D1*
X1373413D2*
X4804410D1*
X1134110Y2280760D2*
X1184353D1*
X1388667D2*
X4804410D1*
X1428853Y2217593D2*
X4804410D1*
X1433563Y2154427D2*
X4804410D1*
X1407520Y2091260D2*
X4804410D1*
X1134110Y2028093D2*
X4519590D1*
X4720930D2*
X4804410D1*
X1134110Y1964927D2*
X1186213D1*
X1386807D2*
X4478413D1*
X4762107D2*
X4804410D1*
X1428230Y1901760D2*
X4472957D1*
X4767563D2*
X4804410D1*
X1433813Y1838593D2*
X4498257D1*
X4742263D2*
X4804410D1*
X1408760Y1775427D2*
X4804410D1*
X1134110Y1712260D2*
X4804410D1*
X1134110Y1649093D2*
X4804410D1*
X1134110Y1585927D2*
X4804410D1*
X1134110Y1522760D2*
X4804410D1*
X1134110Y1459593D2*
X4804410D1*
X1134110Y1396427D2*
X4804410D1*
X1134110Y1333260D2*
X4804410D1*
X1134110Y1270093D2*
X4804410D1*
X1134110Y1206927D2*
X4804410D1*
X1134110Y1143760D2*
X4804410D1*
X1428380Y3751843D2*
X1424887Y3729790D1*
X1417987Y3708550D1*
X1407850Y3688653D1*
X1394723Y3670587D1*
X1378933Y3654797D1*
X1360867Y3641670D1*
X1340970Y3631533D1*
X1319730Y3624633D1*
X1297677Y3621140D1*
X1275343D1*
X1253290Y3624633D1*
X1232050Y3631533D1*
X1212153Y3641670D1*
X1194087Y3654797D1*
X1178297Y3670587D1*
X1165170Y3688653D1*
X1155033Y3708550D1*
X1148133Y3729790D1*
X1144640Y3751843D1*
Y3774177D1*
X1148133Y3796230D1*
X1155033Y3817470D1*
X1165170Y3837367D1*
X1178297Y3855433D1*
X1194087Y3871223D1*
X1212153Y3884350D1*
X1232050Y3894487D1*
X1253290Y3901387D1*
X1275343Y3904880D1*
X1297677D1*
X1319730Y3901387D1*
X1340970Y3894487D1*
X1360867Y3884350D1*
X1378933Y3871223D1*
X1394723Y3855433D1*
X1407850Y3837367D1*
X1417987Y3817470D1*
X1424887Y3796230D1*
X1428380Y3774177D1*
Y3751843D1*
Y3434343D2*
X1424887Y3412290D1*
X1417987Y3391050D1*
X1407850Y3371153D1*
X1394723Y3353087D1*
X1378933Y3337297D1*
X1360867Y3324170D1*
X1340970Y3314033D1*
X1319730Y3307133D1*
X1297677Y3303640D1*
X1275343D1*
X1253290Y3307133D1*
X1232050Y3314033D1*
X1212153Y3324170D1*
X1194087Y3337297D1*
X1178297Y3353087D1*
X1165170Y3371153D1*
X1155033Y3391050D1*
X1148133Y3412290D1*
X1144640Y3434343D1*
Y3456677D1*
X1148133Y3478730D1*
X1155033Y3499970D1*
X1165170Y3519867D1*
X1178297Y3537933D1*
X1194087Y3553723D1*
X1212153Y3566850D1*
X1232050Y3576987D1*
X1253290Y3583887D1*
X1275343Y3587380D1*
X1297677D1*
X1319730Y3583887D1*
X1340970Y3576987D1*
X1360867Y3566850D1*
X1378933Y3553723D1*
X1394723Y3537933D1*
X1407850Y3519867D1*
X1417987Y3499970D1*
X1424887Y3478730D1*
X1428380Y3456677D1*
Y3434343D1*
Y3085093D2*
X1424887Y3063040D1*
X1417987Y3041800D1*
X1407850Y3021903D1*
X1394723Y3003837D1*
X1378933Y2988047D1*
X1360867Y2974920D1*
X1340970Y2964783D1*
X1319730Y2957883D1*
X1297677Y2954390D1*
X1275343D1*
X1253290Y2957883D1*
X1232050Y2964783D1*
X1212153Y2974920D1*
X1194087Y2988047D1*
X1178297Y3003837D1*
X1165170Y3021903D1*
X1155033Y3041800D1*
X1148133Y3063040D1*
X1144640Y3085093D1*
Y3107427D1*
X1148133Y3129480D1*
X1155033Y3150720D1*
X1165170Y3170617D1*
X1178297Y3188683D1*
X1194087Y3204473D1*
X1212153Y3217600D1*
X1232050Y3227737D1*
X1253290Y3234637D1*
X1275343Y3238130D1*
X1297677D1*
X1319730Y3234637D1*
X1340970Y3227737D1*
X1360867Y3217600D1*
X1378933Y3204473D1*
X1394723Y3188683D1*
X1407850Y3170617D1*
X1417987Y3150720D1*
X1424887Y3129480D1*
X1428380Y3107427D1*
Y3085093D1*
Y2767593D2*
X1424887Y2745540D1*
X1417987Y2724300D1*
X1407850Y2704403D1*
X1394723Y2686337D1*
X1378933Y2670547D1*
X1360867Y2657420D1*
X1340970Y2647283D1*
X1319730Y2640383D1*
X1297677Y2636890D1*
X1275343D1*
X1253290Y2640383D1*
X1232050Y2647283D1*
X1212153Y2657420D1*
X1194087Y2670547D1*
X1178297Y2686337D1*
X1165170Y2704403D1*
X1155033Y2724300D1*
X1148133Y2745540D1*
X1144640Y2767593D1*
Y2789927D1*
X1148133Y2811980D1*
X1155033Y2833220D1*
X1165170Y2853117D1*
X1178297Y2871183D1*
X1194087Y2886973D1*
X1212153Y2900100D1*
X1232050Y2910237D1*
X1253290Y2917137D1*
X1275343Y2920630D1*
X1297677D1*
X1319730Y2917137D1*
X1340970Y2910237D1*
X1360867Y2900100D1*
X1378933Y2886973D1*
X1394723Y2871183D1*
X1407850Y2853117D1*
X1417987Y2833220D1*
X1424887Y2811980D1*
X1428380Y2789927D1*
Y2767593D1*
Y2450093D2*
X1424887Y2428040D1*
X1417987Y2406800D1*
X1407850Y2386903D1*
X1394723Y2368837D1*
X1378933Y2353047D1*
X1360867Y2339920D1*
X1340970Y2329783D1*
X1319730Y2322883D1*
X1297677Y2319390D1*
X1275343D1*
X1253290Y2322883D1*
X1232050Y2329783D1*
X1212153Y2339920D1*
X1194087Y2353047D1*
X1178297Y2368837D1*
X1165170Y2386903D1*
X1155033Y2406800D1*
X1148133Y2428040D1*
X1144640Y2450093D1*
Y2472427D1*
X1148133Y2494480D1*
X1155033Y2515720D1*
X1165170Y2535617D1*
X1178297Y2553683D1*
X1194087Y2569473D1*
X1212153Y2582600D1*
X1232050Y2592737D1*
X1253290Y2599637D1*
X1275343Y2603130D1*
X1297677D1*
X1319730Y2599637D1*
X1340970Y2592737D1*
X1360867Y2582600D1*
X1378933Y2569473D1*
X1394723Y2553683D1*
X1407850Y2535617D1*
X1417987Y2515720D1*
X1424887Y2494480D1*
X1428380Y2472427D1*
Y2450093D1*
Y2164343D2*
X1424887Y2142290D1*
X1417987Y2121050D1*
X1407850Y2101153D1*
X1394723Y2083087D1*
X1378933Y2067297D1*
X1360867Y2054170D1*
X1340970Y2044033D1*
X1319730Y2037133D1*
X1297677Y2033640D1*
X1275343D1*
X1253290Y2037133D1*
X1232050Y2044033D1*
X1212153Y2054170D1*
X1194087Y2067297D1*
X1178297Y2083087D1*
X1165170Y2101153D1*
X1155033Y2121050D1*
X1148133Y2142290D1*
X1144640Y2164343D1*
Y2186677D1*
X1148133Y2208730D1*
X1155033Y2229970D1*
X1165170Y2249867D1*
X1178297Y2267933D1*
X1194087Y2283723D1*
X1212153Y2296850D1*
X1232050Y2306987D1*
X1253290Y2313887D1*
X1275343Y2317380D1*
X1297677D1*
X1319730Y2313887D1*
X1340970Y2306987D1*
X1360867Y2296850D1*
X1378933Y2283723D1*
X1394723Y2267933D1*
X1407850Y2249867D1*
X1417987Y2229970D1*
X1424887Y2208730D1*
X1428380Y2186677D1*
Y2164343D1*
Y1846843D2*
X1424887Y1824790D1*
X1417987Y1803550D1*
X1407850Y1783653D1*
X1394723Y1765587D1*
X1378933Y1749797D1*
X1360867Y1736670D1*
X1340970Y1726533D1*
X1319730Y1719633D1*
X1297677Y1716140D1*
X1275343D1*
X1253290Y1719633D1*
X1232050Y1726533D1*
X1212153Y1736670D1*
X1194087Y1749797D1*
X1178297Y1765587D1*
X1165170Y1783653D1*
X1155033Y1803550D1*
X1148133Y1824790D1*
X1144640Y1846843D1*
Y1869177D1*
X1148133Y1891230D1*
X1155033Y1912470D1*
X1165170Y1932367D1*
X1178297Y1950433D1*
X1194087Y1966223D1*
X1212153Y1979350D1*
X1232050Y1989487D1*
X1253290Y1996387D1*
X1275343Y1999880D1*
X1297677D1*
X1319730Y1996387D1*
X1340970Y1989487D1*
X1360867Y1979350D1*
X1378933Y1966223D1*
X1394723Y1950433D1*
X1407850Y1932367D1*
X1417987Y1912470D1*
X1424887Y1891230D1*
X1428380Y1869177D1*
Y1846843D1*
X4762130Y3497843D2*
X4758637Y3475790D1*
X4751737Y3454550D1*
X4741600Y3434653D1*
X4728473Y3416587D1*
X4712683Y3400797D1*
X4694617Y3387670D1*
X4674720Y3377533D1*
X4653480Y3370633D1*
X4631427Y3367140D1*
X4609093D1*
X4587040Y3370633D1*
X4565800Y3377533D1*
X4545903Y3387670D1*
X4527837Y3400797D1*
X4512047Y3416587D1*
X4505210Y3425260D1*
X3868307Y3425200D1*
X3854570Y3413457D1*
X3838767Y3403773D1*
X3821643Y3396680D1*
X3803623Y3392353D1*
X3785147Y3390900D1*
X3766670Y3392353D1*
X3748650Y3396680D1*
X3731527Y3403773D1*
X3715723Y3413457D1*
X3701630Y3425493D1*
X3689593Y3439587D1*
X3679910Y3455390D1*
X3672817Y3472513D1*
X3668490Y3490533D1*
X3667037Y3509010D1*
X3668490Y3527487D1*
X3672817Y3545507D1*
X3679910Y3562630D1*
X3689593Y3578433D1*
X3701630Y3592527D1*
X3715723Y3604563D1*
X3731527Y3614247D1*
X3748650Y3621340D1*
X3766670Y3625667D1*
X3785147Y3627120D1*
X3803623Y3625667D1*
X3821643Y3621340D1*
X3838767Y3614247D1*
X3854570Y3604563D1*
X3868370Y3592797D1*
X4505350Y3592820D1*
X4519630Y3609640D1*
X4536613Y3624140D1*
X4555653Y3635810D1*
X4576283Y3644353D1*
X4597997Y3649567D1*
X4620260Y3651320D1*
X4642523Y3649567D1*
X4664237Y3644353D1*
X4684867Y3635810D1*
X4703907Y3624140D1*
X4720890Y3609640D1*
X4735390Y3592657D1*
X4747060Y3573617D1*
X4755603Y3552987D1*
X4760817Y3531273D1*
X4762570Y3509010D1*
X4762130Y3497843D1*
Y3180343D2*
X4758637Y3158290D1*
X4751737Y3137050D1*
X4741600Y3117153D1*
X4728473Y3099087D1*
X4712683Y3083297D1*
X4694617Y3070170D1*
X4674720Y3060033D1*
X4653480Y3053133D1*
X4631427Y3049640D1*
X4609093D1*
X4587040Y3053133D1*
X4565800Y3060033D1*
X4545903Y3070170D1*
X4527837Y3083297D1*
X4512047Y3099087D1*
X4498920Y3117153D1*
X4488783Y3137050D1*
X4481883Y3158290D1*
X4479470Y3171200D1*
X4342820D1*
X4351090Y3152057D1*
X4355417Y3134037D1*
X4356870Y3115560D1*
X4355417Y3097083D1*
X4352713Y3084813D1*
X4468087Y3084563D1*
X4487410Y3080717D1*
X4505300Y3072470D1*
X4520773Y3060273D1*
X4521350Y3059650D1*
X4598210Y2982837D1*
X4620260Y2984570D1*
X4642523Y2982817D1*
X4664237Y2977603D1*
X4684867Y2969060D1*
X4703907Y2957390D1*
X4720890Y2942890D1*
X4735390Y2925907D1*
X4747060Y2906867D1*
X4755603Y2886237D1*
X4760817Y2864523D1*
X4762570Y2842260D1*
X4760817Y2819997D1*
X4755603Y2798283D1*
X4747060Y2777653D1*
X4735390Y2758613D1*
X4720890Y2741630D1*
X4703907Y2727130D1*
X4684867Y2715460D1*
X4664237Y2706917D1*
X4642523Y2701703D1*
X4620260Y2699950D1*
X4597997Y2701703D1*
X4576283Y2706917D1*
X4555653Y2715460D1*
X4536613Y2727130D1*
X4519630Y2741630D1*
X4505130Y2758613D1*
X4493460Y2777653D1*
X4484917Y2798283D1*
X4479703Y2819997D1*
X4477950Y2842260D1*
X4479687Y2864393D1*
X4426733Y2917263D1*
X3974967Y2917200D1*
X3961087Y2905457D1*
X3945283Y2895773D1*
X3928160Y2888680D1*
X3910140Y2884353D1*
X3891663Y2882900D1*
X3873187Y2884353D1*
X3855167Y2888680D1*
X3838043Y2895773D1*
X3822240Y2905457D1*
X3808147Y2917493D1*
X3796110Y2931587D1*
X3786427Y2947390D1*
X3779333Y2964513D1*
X3775007Y2982533D1*
X3773553Y3001010D1*
X3775007Y3019487D1*
X3777710Y3031757D1*
X3559483Y3031750D1*
X3563257Y3010277D1*
Y2991743D1*
X3560357Y2973437D1*
X3554630Y2955810D1*
X3546217Y2939297D1*
X3535320Y2924303D1*
X3522217Y2911200D1*
X3507223Y2900303D1*
X3490710Y2891890D1*
X3473083Y2886163D1*
X3454777Y2883263D1*
X3436243D1*
X3417937Y2886163D1*
X3400310Y2891890D1*
X3394160Y2894727D1*
X3214400Y2714873D1*
X3212917Y2696783D1*
X3208590Y2678763D1*
X3201497Y2661640D1*
X3191813Y2645837D1*
X3179777Y2631743D1*
X3165683Y2619707D1*
X3149880Y2610023D1*
X3132757Y2602930D1*
X3114737Y2598603D1*
X3096260Y2597150D1*
X3077783Y2598603D1*
X3059763Y2602930D1*
X3042640Y2610023D1*
X3026837Y2619707D1*
X3012743Y2631743D1*
X3000707Y2645837D1*
X2991023Y2661640D1*
X2983930Y2678763D1*
X2979603Y2696783D1*
X2978150Y2715260D1*
X2979603Y2733737D1*
X2983930Y2751757D1*
X2991023Y2768880D1*
X3000707Y2784683D1*
X3012743Y2798777D1*
X3026837Y2810813D1*
X3042640Y2820497D1*
X3059763Y2827590D1*
X3077783Y2831917D1*
X3095863Y2833353D1*
X3146487Y2884353D1*
X3128010Y2882900D1*
X3109533Y2884353D1*
X3091513Y2888680D1*
X3074390Y2895773D1*
X3058587Y2905457D1*
X3044493Y2917493D1*
X3032457Y2931587D1*
X3022773Y2947390D1*
X3015680Y2964513D1*
X3011353Y2982533D1*
X3009900Y3001010D1*
X3011353Y3019487D1*
X3015680Y3037507D1*
X3022773Y3054630D1*
X3032457Y3070433D1*
X3044493Y3084527D1*
X3058587Y3096563D1*
X3074390Y3106247D1*
X3091513Y3113340D1*
X3109533Y3117667D1*
X3127613Y3119103D1*
X3152147Y3143673D1*
X3137890Y3149773D1*
X3122087Y3159457D1*
X3107993Y3171493D1*
X3095957Y3185587D1*
X3086273Y3201390D1*
X3079180Y3218513D1*
X3074853Y3236533D1*
X3073400Y3255010D1*
X3074853Y3273487D1*
X3079180Y3291507D1*
X3086273Y3308630D1*
X3095957Y3324433D1*
X3107993Y3338527D1*
X3122087Y3350563D1*
X3137890Y3360247D1*
X3155013Y3367340D1*
X3173033Y3371667D1*
X3191510Y3373120D1*
X3209987Y3371667D1*
X3228007Y3367340D1*
X3245130Y3360247D1*
X3260933Y3350563D1*
X3274733Y3338797D1*
X3330540Y3338820D1*
X3344337Y3350563D1*
X3360140Y3360247D1*
X3377263Y3367340D1*
X3395283Y3371667D1*
X3413760Y3373120D1*
X3432237Y3371667D1*
X3450257Y3367340D1*
X3467380Y3360247D1*
X3483183Y3350563D1*
X3497277Y3338527D1*
X3509313Y3324433D1*
X3518997Y3308630D1*
X3526090Y3291507D1*
X3530417Y3273487D1*
X3531870Y3255010D1*
X3530417Y3236533D1*
X3526090Y3218513D1*
X3517847Y3199333D1*
X3802527Y3199370D1*
X3794293Y3218513D1*
X3789967Y3236533D1*
X3788513Y3255010D1*
X3789967Y3273487D1*
X3794293Y3291507D1*
X3801387Y3308630D1*
X3811070Y3324433D1*
X3823107Y3338527D1*
X3837200Y3350563D1*
X3853003Y3360247D1*
X3870127Y3367340D1*
X3888147Y3371667D1*
X3906623Y3373120D1*
X3925100Y3371667D1*
X3943120Y3367340D1*
X3960243Y3360247D1*
X3976047Y3350563D1*
X3989847Y3338797D1*
X4563337Y3338563D1*
X4582660Y3334717D1*
X4589743Y3332020D1*
X4620260Y3333820D1*
X4642523Y3332067D1*
X4664237Y3326853D1*
X4684867Y3318310D1*
X4703907Y3306640D1*
X4720890Y3292140D1*
X4735390Y3275157D1*
X4747060Y3256117D1*
X4755603Y3235487D1*
X4760817Y3213773D1*
X4762570Y3191510D1*
X4762130Y3180343D1*
Y2513593D2*
X4758637Y2491540D1*
X4751737Y2470300D1*
X4741600Y2450403D1*
X4728473Y2432337D1*
X4712683Y2416547D1*
X4694617Y2403420D1*
X4674720Y2393283D1*
X4653480Y2386383D1*
X4631427Y2382890D1*
X4609093D1*
X4587040Y2386383D1*
X4565800Y2393283D1*
X4545903Y2403420D1*
X4527837Y2416547D1*
X4512047Y2432337D1*
X4498920Y2450403D1*
X4488783Y2470300D1*
X4481883Y2491540D1*
X4478390Y2513593D1*
Y2535927D1*
X4481883Y2557980D1*
X4488783Y2579220D1*
X4498920Y2599117D1*
X4512047Y2617183D1*
X4527837Y2632973D1*
X4545903Y2646100D1*
X4565800Y2656237D1*
X4587040Y2663137D1*
X4609093Y2666630D1*
X4631427D1*
X4653480Y2663137D1*
X4674720Y2656237D1*
X4694617Y2646100D1*
X4712683Y2632973D1*
X4728473Y2617183D1*
X4741600Y2599117D1*
X4751737Y2579220D1*
X4758637Y2557980D1*
X4762130Y2535927D1*
Y2513593D1*
Y1910343D2*
X4758637Y1888290D1*
X4751737Y1867050D1*
X4741600Y1847153D1*
X4728473Y1829087D1*
X4712683Y1813297D1*
X4694617Y1800170D1*
X4674720Y1790033D1*
X4653480Y1783133D1*
X4631427Y1779640D1*
X4609093D1*
X4587040Y1783133D1*
X4565800Y1790033D1*
X4545903Y1800170D1*
X4527837Y1813297D1*
X4512047Y1829087D1*
X4498920Y1847153D1*
X4488783Y1867050D1*
X4481883Y1888290D1*
X4478390Y1910343D1*
Y1932677D1*
X4481883Y1954730D1*
X4488783Y1975970D1*
X4498920Y1995867D1*
X4512047Y2013933D1*
X4527837Y2029723D1*
X4545903Y2042850D1*
X4565800Y2052987D1*
X4587040Y2059887D1*
X4609093Y2063380D1*
X4631427D1*
X4653480Y2059887D1*
X4674720Y2052987D1*
X4694617Y2042850D1*
X4712683Y2029723D1*
X4728473Y2013933D1*
X4741600Y1995867D1*
X4751737Y1975970D1*
X4758637Y1954730D1*
X4762130Y1932677D1*
Y1910343D1*
X3460380Y3974093D2*
X3456887Y3952040D1*
X3449987Y3930800D1*
X3439850Y3910903D1*
X3426723Y3892837D1*
X3410933Y3877047D1*
X3392867Y3863920D1*
X3372970Y3853783D1*
X3351730Y3846883D1*
X3329677Y3843390D1*
X3307343D1*
X3285290Y3846883D1*
X3264050Y3853783D1*
X3244153Y3863920D1*
X3226087Y3877047D1*
X3210297Y3892837D1*
X3197170Y3910903D1*
X3187033Y3930800D1*
X3180133Y3952040D1*
X3176640Y3974093D1*
Y3996427D1*
X3180133Y4018480D1*
X3187033Y4039720D1*
X3197170Y4059617D1*
X3210297Y4077683D1*
X3226087Y4093473D1*
X3244153Y4106600D1*
X3264050Y4116737D1*
X3285290Y4123637D1*
X3307343Y4127130D1*
X3329677D1*
X3351730Y4123637D1*
X3372970Y4116737D1*
X3392867Y4106600D1*
X3410933Y4093473D1*
X3426723Y4077683D1*
X3439850Y4059617D1*
X3449987Y4039720D1*
X3456887Y4018480D1*
X3460380Y3996427D1*
Y3974093D1*
X4779010Y4175760D2*
X1127760D1*
Y1127760D1*
X4810760D1*
Y4175760D1*
X4779010D1*
D16*
X1286510Y3763010D3*
Y3445510D3*
Y3096260D3*
Y2778760D3*
Y2461260D3*
Y2175510D3*
Y1858010D3*
X4620260Y3509010D3*
Y3191510D3*
Y2842260D3*
Y2524760D3*
Y1921510D3*
X3318510Y3985260D3*
X4302760D3*
M02*
