G04 DipTrace 3.0.0.2*
G04 RGBI-AnalogRGB.GBO*
%MOMM*%
G04 #@! TF.FileFunction,Legend,Bot*
G04 #@! TF.Part,Single*
%ADD34C,0.39216*%
%ADD36C,0.31373*%
%FSLAX35Y35*%
G04*
G71*
G90*
G75*
G01*
G04 BotSilk*
%LPD*%
X4554094Y1467031D2*
D36*
X4515236Y1330914D1*
X4476377Y1467031D1*
X4437519Y1330914D1*
X4398660Y1467031D1*
X4335915D2*
X4297057Y1330914D1*
X4258198Y1467031D1*
X4219340Y1330914D1*
X4180481Y1467031D1*
X4117736D2*
X4078878Y1330914D1*
X4040019Y1467031D1*
X4001161Y1330914D1*
X3962302Y1467031D1*
X3889899Y1350456D2*
X3899557Y1340573D1*
X3889899Y1330914D1*
X3880016Y1340573D1*
X3889899Y1350456D1*
X3700695Y1535090D2*
Y1330914D1*
Y1437831D2*
X3720012Y1457373D1*
X3739554Y1467031D1*
X3768754D1*
X3788070Y1457373D1*
X3807612Y1437831D1*
X3817270Y1408631D1*
Y1389314D1*
X3807612Y1360114D1*
X3788070Y1340798D1*
X3768754Y1330914D1*
X3739554D1*
X3720012Y1340798D1*
X3700695Y1360114D1*
X3521375Y1467031D2*
Y1330914D1*
Y1437831D2*
X3540692Y1457373D1*
X3560233Y1467031D1*
X3589208D1*
X3608750Y1457373D1*
X3628067Y1437831D1*
X3637950Y1408631D1*
Y1389314D1*
X3628067Y1360114D1*
X3608750Y1340798D1*
X3589208Y1330914D1*
X3560233D1*
X3540692Y1340798D1*
X3521375Y1360114D1*
X3429430Y1535090D2*
Y1369773D1*
X3419771Y1340798D1*
X3400230Y1330914D1*
X3380913D1*
X3458630Y1467031D2*
X3390571D1*
X3269651D2*
X3288968Y1457373D1*
X3308509Y1437831D1*
X3318168Y1408631D1*
Y1389314D1*
X3308509Y1360114D1*
X3288968Y1340798D1*
X3269651Y1330914D1*
X3240451D1*
X3220909Y1340798D1*
X3201592Y1360114D1*
X3191709Y1389314D1*
Y1408631D1*
X3201592Y1437831D1*
X3220909Y1457373D1*
X3240451Y1467031D1*
X3269651D1*
X3128964D2*
Y1330914D1*
Y1408631D2*
X3119081Y1437831D1*
X3099764Y1457373D1*
X3080222Y1467031D1*
X3051022D1*
X2988277D2*
Y1330914D1*
Y1428173D2*
X2959077Y1457373D1*
X2939536Y1467031D1*
X2910560D1*
X2891019Y1457373D1*
X2881360Y1428173D1*
Y1330914D1*
Y1428173D2*
X2852160Y1457373D1*
X2832619Y1467031D1*
X2803643D1*
X2784102Y1457373D1*
X2774219Y1428173D1*
Y1330914D1*
X2711474Y1467031D2*
Y1369773D1*
X2701815Y1340798D1*
X2682274Y1330914D1*
X2653074D1*
X2633757Y1340798D1*
X2604557Y1369773D1*
Y1467031D2*
Y1330914D1*
X2434895Y1437831D2*
X2444553Y1457373D1*
X2473753Y1467031D1*
X2502953D1*
X2532153Y1457373D1*
X2541812Y1437831D1*
X2532153Y1418514D1*
X2512612Y1408631D1*
X2464095Y1398973D1*
X2444553Y1389314D1*
X2434895Y1369773D1*
Y1360114D1*
X2444553Y1340798D1*
X2473753Y1330914D1*
X2502953D1*
X2532153Y1340798D1*
X2541812Y1360114D1*
X2372150Y1408631D2*
X2255574D1*
Y1428173D1*
X2265233Y1447714D1*
X2274891Y1457373D1*
X2294433Y1467031D1*
X2323633D1*
X2342950Y1457373D1*
X2362491Y1437831D1*
X2372150Y1408631D1*
Y1389314D1*
X2362491Y1360114D1*
X2342950Y1340798D1*
X2323633Y1330914D1*
X2294433D1*
X2274891Y1340798D1*
X2255574Y1360114D1*
X2192829Y1467031D2*
Y1369773D1*
X2183171Y1340798D1*
X2163629Y1330914D1*
X2134429D1*
X2115112Y1340798D1*
X2085912Y1369773D1*
Y1467031D2*
Y1330914D1*
X2023167Y1467031D2*
Y1330914D1*
Y1428173D2*
X1993967Y1457373D1*
X1974426Y1467031D1*
X1945450D1*
X1925909Y1457373D1*
X1916250Y1428173D1*
Y1330914D1*
Y1428173D2*
X1887050Y1457373D1*
X1867509Y1467031D1*
X1838533D1*
X1818992Y1457373D1*
X1809109Y1428173D1*
Y1330914D1*
X1736705Y1350456D2*
X1746364Y1340573D1*
X1736705Y1330914D1*
X1726822Y1340573D1*
X1736705Y1350456D1*
X1557160Y1437831D2*
X1566819Y1457373D1*
X1596019Y1467031D1*
X1625219D1*
X1654419Y1457373D1*
X1664077Y1437831D1*
X1654419Y1418514D1*
X1634877Y1408631D1*
X1586360Y1398973D1*
X1566819Y1389314D1*
X1557160Y1369773D1*
Y1360114D1*
X1566819Y1340798D1*
X1596019Y1330914D1*
X1625219D1*
X1654419Y1340798D1*
X1664077Y1360114D1*
X1494415Y1408631D2*
X1377840D1*
Y1428173D1*
X1387498Y1447714D1*
X1397157Y1457373D1*
X1416698Y1467031D1*
X1445898D1*
X1465215Y1457373D1*
X1484757Y1437831D1*
X1494415Y1408631D1*
Y1389314D1*
X1484757Y1360114D1*
X1465215Y1340798D1*
X1445898Y1330914D1*
X1416698D1*
X1397157Y1340798D1*
X1377840Y1360114D1*
X3885381Y1758498D2*
D34*
Y2013718D1*
X3982528Y1758498D1*
X4079674Y2013718D1*
Y1758498D1*
X3661231Y1928645D2*
Y1758498D1*
Y1892145D2*
X3685377Y1916572D1*
X3709804Y1928645D1*
X3746023D1*
X3770450Y1916572D1*
X3794596Y1892145D1*
X3806950Y1855645D1*
Y1831498D1*
X3794596Y1794998D1*
X3770450Y1770852D1*
X3746023Y1758498D1*
X3709804D1*
X3685377Y1770852D1*
X3661231Y1794998D1*
X3546299Y2013718D2*
Y1807072D1*
X3534226Y1770852D1*
X3509799Y1758498D1*
X3485653D1*
X3582799Y1928645D2*
X3497726D1*
X3370722Y2013718D2*
Y1807072D1*
X3358649Y1770852D1*
X3334222Y1758498D1*
X3310076D1*
X3407222Y1928645D2*
X3322149D1*
X3231644Y2013718D2*
X3219571Y2001645D1*
X3207217Y2013718D1*
X3219571Y2026072D1*
X3231644Y2013718D1*
X3219571Y1928645D2*
Y1758498D1*
X2995140Y1892145D2*
X3007213Y1916572D1*
X3043713Y1928645D1*
X3080213D1*
X3116713Y1916572D1*
X3128786Y1892145D1*
X3116713Y1867998D1*
X3092286Y1855645D1*
X3031640Y1843572D1*
X3007213Y1831498D1*
X2995140Y1807072D1*
Y1794998D1*
X3007213Y1770852D1*
X3043713Y1758498D1*
X3080213D1*
X3116713Y1770852D1*
X3128786Y1794998D1*
X2669816Y2013718D2*
Y1758498D1*
X2524096D1*
X2445665Y2013718D2*
X2433592Y2001645D1*
X2421238Y2013718D1*
X2433592Y2026072D1*
X2445665Y2013718D1*
X2433592Y1928645D2*
Y1758498D1*
X2342807Y1928645D2*
Y1758498D1*
Y1880072D2*
X2306307Y1916572D1*
X2281880Y1928645D1*
X2245661D1*
X2221234Y1916572D1*
X2209161Y1880072D1*
Y1758498D1*
X1985010Y2013718D2*
Y1758498D1*
Y1892145D2*
X2009156Y1916572D1*
X2033583Y1928645D1*
X2070083D1*
X2094229Y1916572D1*
X2118656Y1892145D1*
X2130729Y1855645D1*
Y1831498D1*
X2118656Y1794998D1*
X2094229Y1770852D1*
X2070083Y1758498D1*
X2033583D1*
X2009156Y1770852D1*
X1985010Y1794998D1*
M02*
