G04 DipTrace 3.0.0.2*
G04 RGBI-AnalogRGB.GTO*
%MOMM*%
G04 #@! TF.FileFunction,Legend,Top*
G04 #@! TF.Part,Single*
%ADD10C,0.25*%
%ADD33C,0.19608*%
%ADD34C,0.39216*%
%ADD35C,0.27451*%
%ADD36C,0.31373*%
%ADD37C,0.15686*%
%ADD38C,0.35294*%
%FSLAX35Y35*%
G04*
G71*
G90*
G75*
G01*
G04 TopSilk*
%LPD*%
X3617242Y2294470D2*
D10*
Y1294550D1*
X3877278Y2294470D2*
Y1294550D1*
X3617242D2*
X3877278D1*
X3617242Y2294470D2*
X3697236D1*
X3797284D2*
X3877278D1*
X3697236D2*
G03X3797284Y2294470I50024J28D01*
G01*
X2283742Y2161023D2*
Y1300997D1*
X2543778Y2161023D2*
Y1300997D1*
X2283742D2*
X2543778D1*
X2283742Y2161023D2*
X2363736D1*
X2463784D2*
X2543778D1*
X2363736D2*
G03X2463784Y2161023I50024J-30D01*
G01*
X2129996Y3831450D2*
Y2551570D1*
X2769992Y3831450D2*
Y2551570D1*
X2129996D2*
X2769992D1*
X2129996Y3831450D2*
X2369966D1*
X2530022D2*
X2769992D1*
X2369966D2*
G03X2530022Y3831450I80028J164D01*
G01*
X2292707Y3952060D2*
Y4081960D1*
X3562707Y2428060D2*
Y2557960D1*
X2229207Y2301060D2*
Y2430960D1*
X3384134Y2448707D2*
D33*
Y2357597D1*
X3390170Y2339347D1*
X3402384Y2327274D1*
X3420634Y2321097D1*
X3432707D1*
X3450957Y2327274D1*
X3463170Y2339347D1*
X3469207Y2357597D1*
Y2448707D1*
X3508423Y2424280D2*
X3520636Y2430457D1*
X3538886Y2448566D1*
Y2321097D1*
X1864579Y2315260D2*
Y2224150D1*
X1870616Y2205900D1*
X1882829Y2193827D1*
X1901079Y2187650D1*
X1913152D1*
X1931402Y2193827D1*
X1943616Y2205900D1*
X1949652Y2224150D1*
Y2315260D1*
X1995045Y2284796D2*
Y2290833D1*
X2001081Y2303046D1*
X2007118Y2309083D1*
X2019331Y2315120D1*
X2043618D1*
X2055691Y2309083D1*
X2061727Y2303046D1*
X2067904Y2290833D1*
Y2278760D1*
X2061727Y2266546D1*
X2049654Y2248437D1*
X1988868Y2187650D1*
X2073941D1*
X1747079Y3953937D2*
Y3862827D1*
X1753116Y3844577D1*
X1765329Y3832504D1*
X1783579Y3826327D1*
X1795652D1*
X1813902Y3832504D1*
X1826116Y3844577D1*
X1832152Y3862827D1*
Y3953937D1*
X1883581Y3953796D2*
X1950264D1*
X1913904Y3905223D1*
X1932154D1*
X1944227Y3899187D1*
X1950264Y3893150D1*
X1956441Y3874900D1*
Y3862827D1*
X1950264Y3844577D1*
X1938191Y3832364D1*
X1919941Y3826327D1*
X1901691D1*
X1883581Y3832364D1*
X1877545Y3838540D1*
X1871368Y3850614D1*
X2165949Y4057174D2*
X2159912Y4069247D1*
X2147699Y4081460D1*
X2135625Y4087497D1*
X2111339D1*
X2099125Y4081460D1*
X2087052Y4069247D1*
X2080875Y4057174D1*
X2074839Y4038924D1*
Y4008460D1*
X2080875Y3990350D1*
X2087052Y3978137D1*
X2099125Y3966064D1*
X2111339Y3959887D1*
X2135625D1*
X2147699Y3966064D1*
X2159912Y3978137D1*
X2165949Y3990350D1*
X2205164Y4063070D2*
X2217378Y4069247D1*
X2235628Y4087356D1*
Y3959887D1*
X3726144Y2723674D2*
X3720107Y2735747D1*
X3707894Y2747960D1*
X3695821Y2753997D1*
X3671534D1*
X3659321Y2747960D1*
X3647248Y2735747D1*
X3641071Y2723674D1*
X3635034Y2705424D1*
Y2674960D1*
X3641071Y2656850D1*
X3647248Y2644637D1*
X3659321Y2632564D1*
X3671534Y2626387D1*
X3695821D1*
X3707894Y2632564D1*
X3720107Y2644637D1*
X3726144Y2656850D1*
X3771536Y2723533D2*
Y2729570D1*
X3777573Y2741783D1*
X3783609Y2747820D1*
X3795823Y2753856D1*
X3820109D1*
X3832183Y2747820D1*
X3838219Y2741783D1*
X3844396Y2729570D1*
Y2717497D1*
X3838219Y2705283D1*
X3826146Y2687174D1*
X3765359Y2626387D1*
X3850433D1*
X2043394Y2469674D2*
X2037357Y2481747D1*
X2025144Y2493960D1*
X2013071Y2499997D1*
X1988784D1*
X1976571Y2493960D1*
X1964498Y2481747D1*
X1958321Y2469674D1*
X1952284Y2451424D1*
Y2420960D1*
X1958321Y2402850D1*
X1964498Y2390637D1*
X1976571Y2378564D1*
X1988784Y2372387D1*
X2013071D1*
X2025144Y2378564D1*
X2037357Y2390637D1*
X2043394Y2402850D1*
X2094823Y2499856D2*
X2161506D1*
X2125146Y2451283D1*
X2143396D1*
X2155469Y2445247D1*
X2161506Y2439210D1*
X2167683Y2420960D1*
Y2408887D1*
X2161506Y2390637D1*
X2149433Y2378424D1*
X2131183Y2372387D1*
X2112933D1*
X2094823Y2378424D1*
X2088786Y2384600D1*
X2082609Y2396674D1*
X4039060Y2447634D2*
Y2502244D1*
X4032883Y2520494D1*
X4026847Y2526671D1*
X4014774Y2532707D1*
X4002560D1*
X3990487Y2526671D1*
X3984310Y2520494D1*
X3978273Y2502244D1*
Y2447634D1*
X4105883D1*
X4039060Y2490171D2*
X4105883Y2532707D1*
X4002700Y2571923D2*
X3996524Y2584136D1*
X3978414Y2602386D1*
X4105883D1*
X4070829Y2851960D2*
X4125439D1*
X4143689Y2858137D1*
X4149866Y2864174D1*
X4155902Y2876247D1*
Y2888460D1*
X4149866Y2900533D1*
X4143689Y2906710D1*
X4125439Y2912747D1*
X4070829D1*
Y2785137D1*
X4113366Y2851960D2*
X4155902Y2785137D1*
X4201295Y2882283D2*
Y2888320D1*
X4207331Y2900533D1*
X4213368Y2906570D1*
X4225581Y2912606D1*
X4249868D1*
X4261941Y2906570D1*
X4267977Y2900533D1*
X4274154Y2888320D1*
Y2876247D1*
X4267977Y2864033D1*
X4255904Y2845924D1*
X4195118Y2785137D1*
X4280191D1*
X3213579Y3264710D2*
X3268189D1*
X3286439Y3270887D1*
X3292616Y3276924D1*
X3298652Y3288997D1*
Y3301210D1*
X3292616Y3313283D1*
X3286439Y3319460D1*
X3268189Y3325497D1*
X3213579D1*
Y3197887D1*
X3256116Y3264710D2*
X3298652Y3197887D1*
X3350081Y3325356D2*
X3416764D1*
X3380404Y3276783D1*
X3398654D1*
X3410727Y3270747D1*
X3416764Y3264710D1*
X3422941Y3246460D1*
Y3234387D1*
X3416764Y3216137D1*
X3404691Y3203924D1*
X3386441Y3197887D1*
X3368191D1*
X3350081Y3203924D1*
X3344045Y3210100D1*
X3337868Y3222174D1*
X3909061Y3677460D2*
X3963670D1*
X3981920Y3683637D1*
X3988097Y3689674D1*
X3994134Y3701747D1*
Y3713960D1*
X3988097Y3726033D1*
X3981920Y3732210D1*
X3963670Y3738247D1*
X3909061D1*
Y3610637D1*
X3951597Y3677460D2*
X3994134Y3610637D1*
X4094136D2*
Y3738106D1*
X4033350Y3653174D1*
X4124459D1*
X3435829Y3709210D2*
X3490439D1*
X3508689Y3715387D1*
X3514866Y3721424D1*
X3520902Y3733497D1*
Y3745710D1*
X3514866Y3757783D1*
X3508689Y3763960D1*
X3490439Y3769997D1*
X3435829D1*
Y3642387D1*
X3478366Y3709210D2*
X3520902Y3642387D1*
X3632977Y3769856D2*
X3572331D1*
X3566295Y3715247D1*
X3572331Y3721283D1*
X3590581Y3727460D1*
X3608691D1*
X3626941Y3721283D1*
X3639154Y3709210D1*
X3645191Y3690960D1*
Y3678887D1*
X3639154Y3660637D1*
X3626941Y3648424D1*
X3608691Y3642387D1*
X3590581D1*
X3572331Y3648424D1*
X3566295Y3654600D1*
X3560118Y3666674D1*
X3565918Y2851960D2*
X3620527D1*
X3638777Y2858137D1*
X3644954Y2864174D1*
X3650991Y2876247D1*
Y2888460D1*
X3644954Y2900533D1*
X3638777Y2906710D1*
X3620527Y2912747D1*
X3565918D1*
Y2785137D1*
X3608454Y2851960D2*
X3650991Y2785137D1*
X3763066Y2894497D2*
X3757029Y2906570D1*
X3738779Y2912606D1*
X3726706D1*
X3708456Y2906570D1*
X3696243Y2888320D1*
X3690206Y2857997D1*
Y2827674D1*
X3696243Y2803387D1*
X3708456Y2791174D1*
X3726706Y2785137D1*
X3732743D1*
X3750852Y2791174D1*
X3763066Y2803387D1*
X3769102Y2821637D1*
Y2827674D1*
X3763066Y2845924D1*
X3750852Y2857997D1*
X3732743Y2864033D1*
X3726706D1*
X3708456Y2857997D1*
X3696243Y2845924D1*
X3690206Y2827674D1*
X3816829Y3359960D2*
X3871439D1*
X3889689Y3366137D1*
X3895866Y3372174D1*
X3901902Y3384247D1*
Y3396460D1*
X3895866Y3408533D1*
X3889689Y3414710D1*
X3871439Y3420747D1*
X3816829D1*
Y3293137D1*
X3859366Y3359960D2*
X3901902Y3293137D1*
X3965404D2*
X4026191Y3420606D1*
X3941118D1*
X4420060Y1499150D2*
Y1553759D1*
X4413883Y1572009D1*
X4407847Y1578186D1*
X4395774Y1584223D1*
X4383560D1*
X4371487Y1578186D1*
X4365310Y1572009D1*
X4359273Y1553759D1*
Y1499150D1*
X4486883D1*
X4420060Y1541686D2*
X4486883Y1584222D1*
X4359414Y1653761D2*
X4365450Y1635652D1*
X4377524Y1629475D1*
X4389737D1*
X4401810Y1635652D1*
X4407987Y1647725D1*
X4414024Y1672011D1*
X4420060Y1690261D1*
X4432274Y1702334D1*
X4444347Y1708371D1*
X4462597D1*
X4474670Y1702334D1*
X4480847Y1696298D1*
X4486883Y1678048D1*
Y1653761D1*
X4480847Y1635652D1*
X4474670Y1629475D1*
X4462597Y1623438D1*
X4444347D1*
X4432274Y1629475D1*
X4420060Y1641688D1*
X4414024Y1659798D1*
X4407987Y1684084D1*
X4401810Y1696298D1*
X4389737Y1702334D1*
X4377524D1*
X4365450Y1696298D1*
X4359414Y1678048D1*
Y1653761D1*
X1627480Y3826320D2*
D34*
X1615407Y3850467D1*
X1590980Y3874893D1*
X1566834Y3886967D1*
X1518261D1*
X1493834Y3874893D1*
X1469688Y3850467D1*
X1457334Y3826320D1*
X1445261Y3789820D1*
Y3728893D1*
X1457334Y3692674D1*
X1469688Y3668247D1*
X1493834Y3644101D1*
X1518261Y3631747D1*
X1566834D1*
X1590980Y3644101D1*
X1615407Y3668247D1*
X1627480Y3692674D1*
Y3728893D1*
X1566834D1*
X1477011Y3569467D2*
Y3314247D1*
X1586511D1*
X1623011Y3326601D1*
X1635084Y3338674D1*
X1647157Y3362820D1*
Y3399320D1*
X1635084Y3423747D1*
X1623011Y3435820D1*
X1586511Y3447893D1*
X1623011Y3460247D1*
X1635084Y3472320D1*
X1647157Y3496467D1*
Y3520893D1*
X1635084Y3545040D1*
X1623011Y3557393D1*
X1586511Y3569467D1*
X1477011D1*
Y3447893D2*
X1586511D1*
X1540511Y3251967D2*
Y2996747D1*
X1477011Y2812893D2*
X1586230D1*
X1622730Y2825247D1*
X1635084Y2837320D1*
X1647157Y2861467D1*
Y2885893D1*
X1635084Y2910040D1*
X1622730Y2922393D1*
X1586230Y2934467D1*
X1477011D1*
Y2679247D1*
X1562084Y2812893D2*
X1647157Y2679247D1*
X1554789Y2517253D2*
D35*
X1546338Y2534155D1*
X1529239Y2551254D1*
X1512337Y2559705D1*
X1478335D1*
X1461237Y2551254D1*
X1444334Y2534155D1*
X1435687Y2517253D1*
X1427235Y2491703D1*
Y2449054D1*
X1435687Y2423700D1*
X1444334Y2406601D1*
X1461237Y2389699D1*
X1478335Y2381051D1*
X1512337D1*
X1529239Y2389699D1*
X1546338Y2406601D1*
X1554789Y2423700D1*
Y2449054D1*
X1512337D1*
X1728793Y2559705D2*
Y2381051D1*
X1609691Y2559705D1*
Y2381051D1*
X1783695Y2559705D2*
Y2381051D1*
X1843246D1*
X1868796Y2389699D1*
X1885895Y2406601D1*
X1894346Y2423700D1*
X1902797Y2449054D1*
Y2491703D1*
X1894346Y2517253D1*
X1885895Y2534155D1*
X1868796Y2551254D1*
X1843246Y2559705D1*
X1783695D1*
X1413511Y2299467D2*
D34*
X1510657Y2044247D1*
X1607803Y2299467D1*
X1445261Y1981967D2*
Y1726747D1*
X1615407Y1981967D2*
Y1726747D1*
X1445261Y1860393D2*
X1615407D1*
X4476365Y3550323D2*
D36*
X4466707Y3569640D1*
X4447165Y3589181D1*
X4427848Y3598840D1*
X4388990D1*
X4369448Y3589181D1*
X4350131Y3569640D1*
X4340248Y3550323D1*
X4330590Y3521123D1*
Y3472381D1*
X4340248Y3443406D1*
X4350131Y3423864D1*
X4369448Y3404548D1*
X4388990Y3394664D1*
X4427848D1*
X4447165Y3404548D1*
X4466707Y3423864D1*
X4476365Y3443406D1*
Y3472381D1*
X4427848D1*
X4360379Y3289955D2*
D35*
Y3111301D1*
X4437029D1*
X4462579Y3119949D1*
X4471030Y3128400D1*
X4479481Y3145303D1*
Y3170853D1*
X4471030Y3187951D1*
X4462579Y3196403D1*
X4437029Y3204854D1*
X4462579Y3213501D1*
X4471030Y3221953D1*
X4479481Y3238855D1*
Y3255954D1*
X4471030Y3272856D1*
X4462579Y3281504D1*
X4437029Y3289955D1*
X4360379D1*
Y3204854D2*
X4437029D1*
X4407869Y2446741D2*
D37*
X4398210Y2441912D1*
X4388439Y2432141D1*
X4383610Y2422483D1*
Y2403053D1*
X4388439Y2393283D1*
X4398210Y2383624D1*
X4407869Y2378683D1*
X4422469Y2373853D1*
X4446839D1*
X4461327Y2378683D1*
X4471098Y2383624D1*
X4480756Y2393283D1*
X4485698Y2403053D1*
Y2422482D1*
X4480756Y2432141D1*
X4471098Y2441912D1*
X4461327Y2446741D1*
X4446839D1*
Y2422483D1*
X4383610Y2546172D2*
X4485698D1*
X4383610Y2478114D1*
X4485698Y2478113D1*
X4383610Y2577544D2*
X4485698D1*
Y2611574D1*
X4480756Y2626174D1*
X4471098Y2635944D1*
X4461327Y2640774D1*
X4446839Y2645603D1*
X4422469D1*
X4407869Y2640774D1*
X4398210Y2635944D1*
X4388439Y2626174D1*
X4383610Y2611574D1*
Y2577544D1*
X4381946Y2866581D2*
D36*
X4469322D1*
X4498522Y2876464D1*
X4508405Y2886123D1*
X4518063Y2905440D1*
Y2924981D1*
X4508405Y2944298D1*
X4498522Y2954181D1*
X4469322Y2963840D1*
X4381946D1*
Y2759664D1*
X4450005Y2866581D2*
X4518063Y2759664D1*
X4485682Y2001625D2*
D38*
X4463950Y2023609D1*
X4431100Y2034475D1*
X4387385D1*
X4354535Y2023609D1*
X4332550Y2001625D1*
Y1979893D1*
X4343669Y1957909D1*
X4354535Y1947043D1*
X4376266Y1936178D1*
X4441966Y1914193D1*
X4463950Y1903328D1*
X4474816Y1892209D1*
X4485682Y1870478D1*
Y1837628D1*
X4463950Y1815896D1*
X4431100Y1804778D1*
X4387385D1*
X4354535Y1815896D1*
X4332550Y1837628D1*
X2836932Y4041253D2*
D35*
X2828481Y4058155D1*
X2811382Y4075254D1*
X2794480Y4083705D1*
X2760479D1*
X2743380Y4075254D1*
X2726478Y4058155D1*
X2717830Y4041253D1*
X2709379Y4015703D1*
Y3973054D1*
X2717830Y3947700D1*
X2726478Y3930601D1*
X2743380Y3913699D1*
X2760479Y3905051D1*
X2794480D1*
X2811382Y3913699D1*
X2828481Y3930601D1*
X2836932Y3947700D1*
Y3973054D1*
X2794480D1*
X3010937Y4083705D2*
Y3905051D1*
X2891834Y4083705D1*
Y3905051D1*
X3065839Y4083705D2*
Y3905051D1*
X3125390D1*
X3150940Y3913699D1*
X3168039Y3930601D1*
X3176490Y3947700D1*
X3184941Y3973054D1*
Y4015703D1*
X3176490Y4041253D1*
X3168039Y4058155D1*
X3150940Y4075254D1*
X3125390Y4083705D1*
X3065839D1*
X3655965Y4060378D2*
D36*
Y3885402D1*
X3568590Y3972778D2*
X3743565D1*
X3922885Y4074865D2*
X3825852D1*
X3816193Y3987490D1*
X3825852Y3997148D1*
X3855052Y4007031D1*
X3884027D1*
X3913227Y3997148D1*
X3932769Y3977831D1*
X3942427Y3948631D1*
Y3929314D1*
X3932769Y3900114D1*
X3913227Y3880573D1*
X3884027Y3870914D1*
X3855052D1*
X3825852Y3880573D1*
X3816193Y3890456D1*
X3806310Y3909773D1*
X4005172Y4075090D2*
X4082889Y3870914D1*
X4160606Y4075090D1*
M02*
