M48
METRIC,0000.00
T01C0.486
T02C0.9
%
T01
X+002645Y+003801
X+003192Y+003255
X+003414Y+003255
X+003446Y+003001
X+003128Y+003001
X+003096Y+002715
X+002525Y+002176
X+003858Y+002303
X+003892Y+003001
X+003907Y+003255
X+003785Y+003509
X+004239Y+003116
T02
X+001287Y+003763
X+001287Y+003446
X+001287Y+003096
X+001287Y+002779
X+001287Y+002461
X+001287Y+002176
X+001287Y+001858
X+003319Y+003985
X+004303Y+003985
X+004620Y+003509
X+004620Y+003192
X+004620Y+002842
X+004620Y+002525
X+004620Y+001922
T00
M30
