G04 DipTrace 3.0.0.2*
G04 RGBI-AnalogRGB.GTS*
%MOMM*%
G04 #@! TF.FileFunction,Soldermask,Top*
G04 #@! TF.Part,Single*
%ADD25R,1.7032X1.5032*%
%ADD27R,1.5032X1.7032*%
%ADD29C,1.7032*%
%ADD31R,2.2032X0.8032*%
%FSLAX35Y35*%
G04*
G71*
G90*
G75*
G01*
G04 TopMask*
%LPD*%
D31*
X3477260Y2239010D3*
Y2112010D3*
Y1985010D3*
Y1858010D3*
Y1731010D3*
Y1604010D3*
Y1477010D3*
Y1350010D3*
X4017260D3*
Y1477010D3*
Y1604010D3*
Y1731010D3*
Y1858010D3*
Y1985010D3*
Y2112010D3*
Y2239010D3*
X2143760Y2112010D3*
Y1985010D3*
Y1858010D3*
Y1731010D3*
Y1604010D3*
Y1477010D3*
Y1350010D3*
X2683760D3*
Y1477010D3*
Y1604010D3*
Y1731010D3*
Y1858010D3*
Y1985010D3*
Y2112010D3*
X1985010Y3763010D3*
Y3636010D3*
Y3509010D3*
Y3382010D3*
Y3255010D3*
Y3128010D3*
Y3001010D3*
Y2874010D3*
Y2747010D3*
Y2620010D3*
X2925010D3*
Y2747010D3*
Y2874010D3*
Y3001010D3*
Y3128010D3*
Y3255010D3*
Y3382010D3*
Y3509010D3*
Y3636010D3*
Y3763010D3*
D29*
X1286510D3*
Y3445510D3*
Y3096260D3*
Y2778760D3*
Y2461260D3*
Y2175510D3*
Y1858010D3*
D27*
X2397760Y4017010D3*
X2587760D3*
X3667760Y2493010D3*
X3857760D3*
X2334260Y2366010D3*
X2524260D3*
D29*
X4620260Y3509010D3*
Y3191510D3*
Y2842260D3*
Y2524760D3*
Y1921510D3*
D25*
X4239260Y2620010D3*
Y2430010D3*
D27*
X4048760Y3001010D3*
X4238760D3*
X3572510Y3255010D3*
X3762510D3*
X3921760Y3509010D3*
X4111760D3*
X3445510D3*
X3635510D3*
X3572510Y3001010D3*
X3762510D3*
X4048760Y3255010D3*
X4238760D3*
D25*
X4620260Y1698760D3*
Y1508760D3*
D29*
X3318510Y3985260D3*
X4302760D3*
M02*
